PathFileType	4	(X/Y/Z)
DataRate	CameraRate	NumFrames	NumMarkers	Units	OrigDataRate	OrigDataStartFrame	OrigNumFrames	
  100.0	  100.0	    4	     56	     mm	  100.0	      80	    317
Frame#	Time	LASI			RASI			LPSI			RPSI			RTH1			RTH2			RTH3			RLFC			RMFC			LTH1			LTH2			LTH3			LLFC			LMFC			RTB1			RTB2			RTB3			RLMAL			RMMAL			LTB1			LTB2			LTB3			LMMAL			LLMAL			RCAL			RTOE			RMT5			LCAL			LTOE			LMT5			LACR			RACR			CLAV			C7			LASH			LPSH			RASH			RPSH			RUA1			RUA2			RUA3			RLEL			RMEL			LUA1			LUA2			LUA3			LLEL			LMEL			RFAsuperior			RFAradius			RFAulna			LFAsuperior			LFAradius			LFAulna			RHJC			LHJC			
		X1	Y1	Z1	X2	Y2	Z2	X3	Y3	Z3	X4	Y4	Z4	X5	Y5	Z5	X6	Y6	Z6	X7	Y7	Z7	X8	Y8	Z8	X9	Y9	Z9	X10	Y10	Z10	X11	Y11	Z11	X12	Y12	Z12	X13	Y13	Z13	X14	Y14	Z14	X15	Y15	Z15	X16	Y16	Z16	X17	Y17	Z17	X18	Y18	Z18	X19	Y19	Z19	X20	Y20	Z20	X21	Y21	Z21	X22	Y22	Z22	X23	Y23	Z23	X24	Y24	Z24	X25	Y25	Z25	X26	Y26	Z26	X27	Y27	Z27	X28	Y28	Z28	X29	Y29	Z29	X30	Y30	Z30	X31	Y31	Z31	X32	Y32	Z32	X33	Y33	Z33	X34	Y34	Z34	X35	Y35	Z35	X36	Y36	Z36	X37	Y37	Z37	X38	Y38	Z38	X39	Y39	Z39	X40	Y40	Z40	X41	Y41	Z41	X42	Y42	Z42	X43	Y43	Z43	X44	Y44	Z44	X45	Y45	Z45	X46	Y46	Z46	X47	Y47	Z47	X48	Y48	Z48	X49	Y49	Z49	X50	Y50	Z50	X51	Y51	Z51	X52	Y52	Z52	X53	Y53	Z53	X54	Y54	Z54	X55	Y55	Z55	X56	Y56	Z56	

152	1.52000	769.03690	1033.06505	-421.33694	510.37580	1035.13513	-439.89894	700.34960	1085.93902	-597.21198	606.17769	1084.13718	-607.93790	441.07337	872.03046	-505.80613	431.95299	771.97873	-475.39695	435.94694	637.76480	-547.81512	430.48329	520.37425	-527.04009	546.93201	512.71196	-499.02912	840.35298	897.07580	-517.35625	849.45099	767.81637	-465.05580	845.55644	652.59863	-549.74090	850.20745	492.19844	-552.03587	735.27289	474.66858	-529.91116	451.60974	369.26612	-494.67682	402.37540	276.58142	-554.34712	448.28527	194.01897	-521.23980	399.45905	121.91005	-578.92378	486.45788	128.41466	-541.88591	829.53891	364.71930	-512.04128	871.08363	312.90183	-560.43391	835.55068	226.56442	-529.17598	789.28738	133.72776	-542.91256	874.47588	127.09348	-579.54888	454.64263	103.31540	-642.63561	422.84031	78.96915	-408.32161	351.96927	59.09997	-437.55962	803.21609	103.21196	-640.41367	860.91580	77.54868	-403.33416	934.48766	58.73024	-454.87338	787.09311	1574.01402	-536.71752	478.43810	1556.92815	-564.65826	594.56199	1510.96138	-478.10486	635.55537	1577.19130	-595.47556	759.47452	1526.66436	-459.37119	820.91374	1504.22467	-595.60107	506.48250	1513.08041	-493.07270	454.79077	1503.46497	-620.92092	345.74658	1522.18315	-549.21423	321.51809	1470.98566	-576.02310	265.32013	1496.36687	-525.65869	184.91412	1488.00097	-497.16396	206.30475	1399.42722	-493.75620	909.39550	1523.21462	-526.52847	943.14343	1442.11730	-535.90048	1007.75749	1476.70146	-476.60450	1073.10149	1457.85067	-447.97652	1041.30677	1372.56245	-436.51417	195.16246	1506.17384	-406.93836	197.66536	1487.50121	-223.51711	130.16736	1504.22385	-243.34006	1078.29827	1478.88560	-359.30884	1042.96037	1465.95529	-176.36760	1114.58753	1470.87856	-180.75924	549.66775	946.53811	-518.64264	751.44062	934.62406	-503.37127	
153	1.53000	769.09497	1033.06777	-421.34286	510.43264	1035.12058	-439.87167	700.40744	1085.92565	-597.23451	606.22781	1084.12732	-607.95003	441.11327	872.03670	-505.77206	431.98105	771.97582	-475.38632	436.14146	637.76489	-547.83790	430.49794	520.36390	-527.08671	546.96160	512.70767	-499.07681	840.40721	897.06760	-517.39472	849.50449	767.78928	-465.11088	845.58947	652.59881	-549.88145	850.21793	492.19525	-552.15041	735.26471	474.63623	-530.02924	451.62989	369.27354	-494.73510	402.37653	276.60431	-554.36906	448.29821	194.05052	-521.23469	399.45976	121.90894	-578.93331	486.46751	128.41628	-541.88917	829.53043	364.74877	-512.13644	871.09086	312.89822	-560.50469	835.54745	226.56744	-529.23461	789.29336	133.71688	-542.92743	874.50698	127.07224	-579.58778	454.65939	103.32067	-642.65062	422.83266	78.97647	-408.29472	351.97558	59.10212	-437.56214	803.19950	103.18638	-640.40529	860.92339	77.55916	-403.34466	934.49439	58.73044	-454.85639	787.07408	1574.06302	-536.78915	478.40228	1556.89917	-564.74225	594.55922	1510.99174	-478.15779	635.54095	1577.15466	-595.57013	759.46741	1526.68628	-459.47586	820.89742	1504.24305	-595.70488	506.47917	1513.04400	-493.07408	454.78946	1503.38077	-621.10576	345.73998	1522.06338	-549.26194	321.50979	1470.87881	-576.01801	265.32019	1496.23042	-525.66484	184.91839	1487.82217	-497.16455	206.36467	1399.29060	-493.76417	909.39506	1523.26291	-526.66359	943.20692	1442.16740	-536.11884	1007.76818	1476.76665	-476.73786	1073.11360	1457.95188	-448.17342	1041.33254	1372.62160	-436.66414	195.17574	1506.00692	-406.93692	197.68523	1487.40902	-223.52042	130.22314	1504.10563	-243.35742	1078.32052	1478.97105	-359.45331	1043.02726	1466.03480	-176.52535	1114.63188	1470.92982	-180.97072	549.72652	946.52519	-518.63118	751.49998	934.61832	-503.36340	
154	1.54000	769.15193	1033.07465	-421.34865	510.48293	1035.10863	-439.84527	700.47169	1085.91221	-597.26493	606.28198	1084.11671	-607.95687	441.13698	872.05788	-505.73244	432.01599	771.97613	-475.35998	436.26169	637.76152	-547.85325	430.55038	520.36782	-527.07572	546.99040	512.70140	-499.10526	840.47050	897.05737	-517.43950	849.53296	767.76087	-465.14477	845.63183	652.60214	-550.03528	850.22697	492.19376	-552.27402	735.25542	474.60029	-530.15948	451.65564	369.28206	-494.79743	402.38810	276.62834	-554.38655	448.30877	194.07453	-521.23825	399.46419	121.91450	-578.94659	486.48123	128.41838	-541.89845	829.51566	364.78913	-512.24439	871.09845	312.89702	-560.57734	835.54045	226.56833	-529.28767	789.29900	133.71325	-542.94784	874.52719	127.06347	-579.62368	454.68274	103.33624	-642.67142	422.84153	78.97925	-408.30534	351.98437	59.10424	-437.56550	803.20736	103.17505	-640.41537	860.93104	77.56597	-403.34319	934.50254	58.73707	-454.85768	787.05579	1574.10487	-536.87805	478.32762	1556.85566	-565.01474	594.54301	1510.99846	-478.24423	635.52991	1577.11801	-595.66654	759.46837	1526.72053	-459.59639	820.88782	1504.25608	-595.83191	506.47566	1513.00820	-493.05473	454.75118	1503.35111	-621.03142	345.74693	1521.95525	-549.31229	321.50773	1470.76773	-575.99787	265.31786	1496.10461	-525.68157	184.93366	1487.65690	-497.18993	206.44029	1399.15358	-493.76152	909.39673	1523.30614	-526.81209	943.21582	1442.24050	-536.24598	1007.78068	1476.82193	-476.87956	1073.14437	1458.04227	-448.39925	1041.36280	1372.68033	-436.82085	195.18151	1505.85997	-406.98674	197.72399	1487.30098	-223.54688	130.25540	1503.99233	-243.36881	1078.33853	1479.03670	-359.60788	1043.09967	1466.11947	-176.69259	1114.68006	1470.98115	-181.19703	549.78504	946.51461	-518.62277	751.55818	934.61337	-503.34831	
155	1.55000	769.20557	1033.08027	-421.35161	510.52524	1035.10194	-439.81780	700.53286	1085.89922	-597.29281	606.33040	1084.10442	-607.95314	441.14660	872.08627	-505.68795	432.05463	771.97871	-475.31934	436.31985	637.75801	-547.86136	430.61640	520.37975	-527.04904	547.01878	512.69438	-499.12847	840.53300	897.03959	-517.48027	849.54653	767.73061	-465.17206	845.68362	652.60721	-550.20383	850.23391	492.19214	-552.40044	735.24604	474.57774	-530.27439	451.68372	369.28963	-494.84179	402.40665	276.63907	-554.39234	448.31207	194.07475	-521.25330	399.46776	121.92748	-578.95047	486.49623	128.41754	-541.90910	829.50400	364.82169	-512.34502	871.10382	312.89342	-560.64830	835.53654	226.56602	-529.33420	789.30261	133.71619	-542.96757	874.53506	127.06483	-579.65283	454.70011	103.35052	-642.68524	422.87304	78.98082	-408.36256	351.99412	59.10283	-437.56844	803.23651	103.17904	-640.44898	860.93707	77.56718	-403.33492	934.50959	58.74344	-454.86900	787.05269	1574.09314	-537.02944	478.25476	1556.74678	-565.24609	594.51930	1510.98206	-478.34322	635.51292	1577.08619	-595.75937	759.47268	1526.76114	-459.72380	820.88077	1504.25643	-595.97264	506.49317	1512.99090	-493.06207	454.71162	1503.30889	-620.86155	345.75908	1521.84934	-549.35753	321.51662	1470.63185	-575.97694	265.30920	1495.98772	-525.70862	184.94883	1487.50808	-497.22685	206.50624	1399.00502	-493.74891	909.39590	1523.34156	-526.98475	943.17868	1442.31953	-536.30093	1007.79456	1476.87019	-477.02495	1073.17812	1458.11070	-448.59155	1041.39423	1372.73816	-436.97210	195.17754	1505.73485	-407.06241	197.79065	1487.17547	-223.58889	130.28030	1503.88104	-243.38582	1078.35636	1479.09598	-359.77888	1043.16633	1466.21134	-176.85641	1114.73381	1471.07768	-181.38023	549.83584	946.50733	-518.61056	751.60832	934.60685	-503.32892	
